<?xml version="1.0" standalone="no"?>
<!DOCTYPE svg PUBLIC "-//W3C//DTD SVG 20010904//EN"
 "http://www.w3.org/TR/2001/REC-SVG-20010904/DTD/svg10.dtd">
<svg version="1.0" xmlns="http://www.w3.org/2000/svg"
 width="782.000000pt" height="782.000000pt" viewBox="0 0 782.000000 782.000000"
 preserveAspectRatio="xMidYMid meet">
<metadata>
Created by potrace 1.14, written by Peter Selinger 2001-2017
</metadata>
<g transform="translate(0.000000,782.000000) scale(0.100000,-0.100000)"
fill="#000000" stroke="none">
<path d="M3247 7804 c-1 -1 -54 -5 -118 -8 -65 -4 -128 -9 -140 -12 -13 -3
-42 -7 -64 -10 -46 -5 -63 -8 -125 -19 -25 -4 -52 -9 -60 -10 -15 -2 -50 -11
-155 -41 -27 -8 -60 -16 -72 -18 -12 -3 -30 -9 -40 -14 -10 -6 -22 -10 -28
-11 -14 -2 -77 -21 -100 -31 -45 -20 -112 -48 -145 -60 -19 -8 -44 -20 -55
-27 -11 -7 -27 -13 -36 -13 -10 0 -19 -3 -21 -7 -1 -5 -23 -18 -48 -31 -151
-75 -310 -177 -450 -289 -78 -62 -256 -233 -324 -312 -94 -110 -259 -350 -319
-466 -119 -232 -220 -512 -253 -705 -18 -104 -24 -140 -29 -172 -3 -21 -7 -54
-10 -73 -26 -183 -23 -574 6 -766 13 -91 19 -128 23 -154 2 -16 13 -69 31
-150 6 -31 17 -72 22 -85 3 -8 8 -23 10 -34 20 -103 168 -459 225 -539 11 -15
16 -27 12 -27 -4 0 0 -8 8 -17 8 -10 31 -45 51 -78 34 -58 134 -195 207 -286
73 -90 340 -349 360 -349 6 0 10 -3 10 -7 0 -5 17 -19 37 -33 20 -14 41 -29
47 -35 19 -18 181 -123 209 -136 15 -7 27 -16 27 -21 0 -4 9 -8 19 -8 11 0 21
-4 23 -8 4 -11 162 -86 283 -135 78 -31 211 -75 305 -100 87 -23 111 -29 178
-42 13 -2 31 -6 40 -9 29 -8 93 -17 217 -31 114 -13 151 -14 320 -14 250 0
369 10 545 45 14 3 38 7 53 10 15 3 51 12 80 20 29 8 63 17 76 20 78 17 401
157 421 183 3 3 21 15 40 25 19 11 47 29 62 40 14 12 41 32 59 46 19 14 73 62
120 108 47 45 88 82 90 82 7 0 2 -190 -6 -267 -13 -119 -20 -168 -25 -168 -1
0 -3 -11 -6 -24 -11 -58 -39 -142 -74 -216 -92 -198 -228 -337 -422 -433 -75
-37 -210 -85 -273 -97 -11 -2 -33 -7 -50 -10 -16 -3 -41 -8 -55 -11 -187 -37
-602 -38 -830 -3 -36 6 -76 12 -90 14 -14 2 -61 11 -105 20 -124 26 -128 27
-245 60 -52 14 -102 28 -110 30 -8 2 -16 4 -17 5 -2 2 -6 3 -10 4 -29 8 -144
47 -213 74 -14 5 -29 11 -35 12 -71 21 -405 192 -413 212 -2 4 -8 8 -12 8 -5
0 -35 18 -66 40 -56 39 -76 48 -72 33 1 -5 -90 -192 -202 -418 -113 -225 -203
-413 -202 -417 1 -5 -3 -8 -8 -8 -6 0 -10 -4 -10 -10 0 -5 -78 -168 -174 -362
-168 -340 -173 -353 -153 -363 12 -5 26 -15 30 -22 4 -7 12 -13 17 -13 4 0 44
-21 87 -46 179 -107 610 -295 729 -320 12 -2 40 -10 63 -19 23 -8 42 -14 44
-14 1 0 9 -2 17 -5 20 -7 129 -36 160 -42 13 -3 65 -16 115 -29 49 -13 104
-25 120 -28 17 -3 41 -9 55 -12 14 -3 72 -14 130 -25 58 -10 121 -22 140 -26
19 -3 44 -7 55 -8 39 -5 140 -19 160 -22 30 -6 113 -15 175 -20 30 -2 72 -6
92 -8 172 -20 791 -28 993 -13 158 12 218 17 240 22 11 2 47 7 80 10 33 3 87
11 120 17 33 5 74 12 90 14 17 2 53 8 80 14 28 6 60 12 71 14 12 3 77 19 145
36 68 17 129 32 134 34 6 1 15 4 20 8 6 3 26 9 45 13 19 4 40 10 45 13 6 4 19
8 30 9 11 2 24 8 29 13 6 6 16 10 23 10 21 0 198 73 313 129 131 64 215 110
308 172 41 27 78 49 83 49 5 0 9 3 9 8 0 4 17 18 38 32 20 14 42 29 48 35 7 5
31 26 55 45 145 116 336 312 424 434 11 15 34 47 51 70 86 116 264 448 290
541 1 6 20 60 42 121 37 105 68 207 79 264 2 14 7 32 10 40 7 18 9 27 16 65 3
17 10 50 15 75 10 42 13 61 28 158 3 20 7 48 9 62 2 14 7 52 10 85 4 33 9 74
11 90 16 121 19 510 19 2609 l0 2369 -72 1 c-39 1 -69 -2 -66 -6 2 -5 -6 -4
-19 1 -13 5 -43 6 -66 1 -23 -4 -42 -5 -42 -1 0 7 -303 6 -324 -2 -8 -3 -17
-3 -20 0 -9 9 -55 10 -98 2 -21 -3 -38 -4 -38 0 0 7 -303 6 -324 -2 -8 -3 -17
-3 -20 0 -9 9 -55 10 -98 2 -21 -3 -38 -4 -38 0 0 7 -303 6 -324 -2 -8 -3 -17
-3 -20 0 -9 9 -55 10 -98 2 -21 -3 -38 -4 -38 0 0 7 -303 6 -324 -2 -8 -3 -17
-3 -20 0 -9 9 -55 10 -98 2 -25 -4 -38 -3 -39 5 0 6 -3 3 -7 -6 -4 -10 -7
-152 -6 -318 0 -165 -2 -300 -5 -300 -3 1 -26 28 -51 62 -58 78 -195 215 -273
273 -34 25 -69 52 -77 58 -16 13 -128 78 -195 114 -50 27 -229 99 -265 108 -8
1 -40 10 -71 19 -57 17 -64 18 -154 37 -109 22 -203 34 -340 44 -89 7 -304 13
-308 9z m948 -1828 c100 -25 210 -70 285 -116 133 -82 273 -234 329 -355 13
-27 27 -57 31 -65 14 -30 40 -147 48 -222 9 -85 8 -183 -2 -252 -4 -25 -7 -48
-7 -51 0 -2 -6 -23 -14 -45 -8 -22 -12 -40 -9 -40 2 0 -2 -13 -11 -30 -9 -16
-13 -30 -11 -30 12 0 -78 -159 -119 -210 -44 -55 -176 -180 -191 -180 -3 0
-20 -11 -37 -24 -63 -48 -194 -99 -342 -132 -62 -13 -331 -13 -406 2 -158 30
-282 82 -403 168 -71 52 -95 73 -156 142 -77 87 -146 224 -175 349 -4 17 -9
39 -12 50 -3 11 -7 79 -8 150 -4 133 8 229 41 330 21 64 75 175 86 175 4 0 8
5 8 11 0 16 49 77 110 137 62 60 171 135 239 164 25 11 60 26 76 33 29 13 115
36 205 53 76 16 366 7 445 -12z"/>
</g>
</svg>
